<svg width="49" height="40" viewBox="0 0 49 40" fill="none" xmlns="http://www.w3.org/2000/svg">
<path d="M2 6.5C2 5.30653 2.47411 4.16193 3.31802 3.31802C4.16193 2.47411 5.30653 2 6.5 2H42.5C43.6935 2 44.8381 2.47411 45.682 3.31802C46.5259 4.16193 47 5.30653 47 6.5V33.5C47 34.6935 46.5259 35.8381 45.682 36.682C44.8381 37.5259 43.6935 38 42.5 38H6.5C5.30653 38 4.16193 37.5259 3.31802 36.682C2.47411 35.8381 2 34.6935 2 33.5V6.5Z" stroke="#EFEFEF" stroke-width="4" stroke-linecap="round" stroke-linejoin="round"/>
<path d="M2 11L18.8773 24.5023C20.4731 25.7792 22.4561 26.4748 24.5 26.4748C26.5439 26.4748 28.5269 25.7792 30.1227 24.5023L47 11" stroke="#EFEFEF" stroke-width="4" stroke-linejoin="round"/>
</svg>
