<svg width="1264" height="750" viewBox="0 0 1264 750" fill="none" xmlns="http://www.w3.org/2000/svg">
<circle cx="240.5" cy="216.5" r="4.5" fill="#7981BC"/>
<circle cx="786.5" cy="135.5" r="4.5" fill="#7981BC"/>
<circle cx="992.5" cy="505.5" r="4.5" fill="#7981BC"/>
<circle cx="1115.5" cy="216.5" r="4.5" fill="#7981BC"/>
<circle cx="727.5" cy="350.5" r="4.5" fill="#7981BC"/>
<circle cx="130.5" cy="709.5" r="4.5" fill="#7981BC"/>
<circle cx="13.5" cy="68.5" r="4.5" fill="#7981BC"/>
<circle cx="430.5" cy="44.5" r="4.5" fill="#7981BC"/>
<circle cx="236.5" cy="461.5" r="4.5" fill="#7981BC"/>
<circle cx="1155.5" cy="22.5" r="4.5" fill="#7981BC"/>
<circle cx="1259.5" cy="677.5" r="4.5" fill="#7981BC"/>
<circle cx="523.5" cy="346.5" r="4.5" fill="#7981BC"/>
<circle cx="4.5" cy="350.5" r="4.5" fill="#7981BC"/>
<circle cx="795.5" cy="745.5" r="4.5" fill="#7981BC"/>
<circle cx="934.5" cy="315.5" r="4.5" fill="#7981BC"/>
<circle cx="1259.5" cy="461.5" r="4.5" fill="#7981BC"/>
<circle cx="983.5" cy="13.5" r="4.5" fill="#7981BC"/>
<circle cx="377.5" cy="4.5" r="4.5" fill="#7981BC"/>
<circle cx="121.5" cy="156.5" r="4.5" fill="#7981BC"/>
<circle cx="35.5" cy="555.5" r="4.5" fill="#7981BC"/>
<circle cx="368.5" cy="668.5" r="4.5" fill="#7981BC"/>
<circle cx="547.5" cy="611.5" r="4.5" fill="#7981BC"/>
<circle cx="578.5" cy="718.5" r="4.5" fill="#7981BC"/>
<circle cx="461.5" cy="470.5" r="4.5" fill="#7981BC"/>
</svg>
